<svg width="17" height="16" viewBox="0 0 17 16" fill="none" xmlns="http://www.w3.org/2000/svg">
<path d="M15.2075 4.58563L11.9144 1.29313C11.8215 1.20024 11.7113 1.12656 11.5899 1.07629C11.4686 1.02603 11.3385 1.00015 11.2072 1.00015C11.0758 1.00015 10.9458 1.02603 10.8245 1.07629C10.7031 1.12656 10.5929 1.20024 10.5 1.29313L1.7925 10C1.69962 10.0929 1.62594 10.2031 1.57567 10.3245C1.5254 10.4458 1.49953 10.5758 1.49953 10.7072C1.49953 10.8385 1.5254 10.9686 1.57567 11.0899C1.62594 11.2113 1.69962 11.3215 1.7925 11.4144L5.08563 14.7069C5.17849 14.7998 5.28874 14.8734 5.41008 14.9237C5.53142 14.974 5.66147 14.9999 5.79281 14.9999C5.92415 14.9999 6.05421 14.974 6.17555 14.9237C6.29689 14.8734 6.40714 14.7998 6.5 14.7069L15.2075 6C15.3004 5.90714 15.3741 5.79689 15.4243 5.67555C15.4746 5.55421 15.5005 5.42415 15.5005 5.29281C15.5005 5.16147 15.4746 5.03142 15.4243 4.91008C15.3741 4.78874 15.3004 4.67849 15.2075 4.58563ZM5.7925 14L2.5 10.7069L4.5 8.70688L6.14625 10.3538C6.19271 10.4002 6.24786 10.4371 6.30855 10.4622C6.36925 10.4873 6.4343 10.5003 6.5 10.5003C6.5657 10.5003 6.63075 10.4873 6.69145 10.4622C6.75215 10.4371 6.8073 10.4002 6.85375 10.3538C6.90021 10.3073 6.93706 10.2521 6.9622 10.1915C6.98734 10.1308 7.00028 10.0657 7.00028 10C7.00028 9.9343 6.98734 9.86925 6.9622 9.80855C6.93706 9.74786 6.90021 9.69271 6.85375 9.64625L5.20688 8L6.5 6.70688L8.14625 8.35375C8.24007 8.44757 8.36732 8.50028 8.5 8.50028C8.63268 8.50028 8.75993 8.44757 8.85375 8.35375C8.94757 8.25993 9.00028 8.13268 9.00028 8C9.00028 7.86732 8.94757 7.74007 8.85375 7.64625L7.20688 6L8.5 4.70688L10.1463 6.35375C10.1927 6.40021 10.2479 6.43706 10.3086 6.4622C10.3693 6.48734 10.4343 6.50028 10.5 6.50028C10.5657 6.50028 10.6308 6.48734 10.6915 6.4622C10.7521 6.43706 10.8073 6.40021 10.8538 6.35375C10.9002 6.3073 10.9371 6.25215 10.9622 6.19145C10.9873 6.13075 11.0003 6.0657 11.0003 6C11.0003 5.9343 10.9873 5.86925 10.9622 5.80855C10.9371 5.74786 10.9002 5.69271 10.8538 5.64625L9.20688 4L11.2069 2L14.5 5.29313L5.7925 14Z" fill="#454545"/>
</svg>
