<svg width="25" height="24" viewBox="0 0 25 24" fill="none" xmlns="http://www.w3.org/2000/svg">
<path d="M10.25 20.25C10.25 20.5467 10.162 20.8367 9.9972 21.0834C9.83238 21.33 9.59811 21.5223 9.32403 21.6358C9.04994 21.7494 8.74834 21.7791 8.45736 21.7212C8.16639 21.6633 7.89912 21.5204 7.68934 21.3107C7.47956 21.1009 7.3367 20.8336 7.27882 20.5426C7.22094 20.2517 7.25065 19.9501 7.36418 19.676C7.47771 19.4019 7.66997 19.1676 7.91665 19.0028C8.16332 18.838 8.45333 18.75 8.75 18.75C9.14782 18.75 9.52936 18.908 9.81066 19.1893C10.092 19.4706 10.25 19.8522 10.25 20.25ZM18.5 18.75C18.2033 18.75 17.9133 18.838 17.6666 19.0028C17.42 19.1676 17.2277 19.4019 17.1142 19.676C17.0006 19.9501 16.9709 20.2517 17.0288 20.5426C17.0867 20.8336 17.2296 21.1009 17.4393 21.3107C17.6491 21.5204 17.9164 21.6633 18.2074 21.7212C18.4983 21.7791 18.7999 21.7494 19.074 21.6358C19.3481 21.5223 19.5824 21.33 19.7472 21.0834C19.912 20.8367 20 20.5467 20 20.25C20 19.8522 19.842 19.4706 19.5607 19.1893C19.2794 18.908 18.8978 18.75 18.5 18.75ZM22.9728 6.95062L20.5691 15.6019C20.4369 16.0745 20.1542 16.4911 19.7639 16.7885C19.3736 17.0859 18.897 17.2479 18.4062 17.25H9.14C8.64784 17.2498 8.16926 17.0886 7.77725 16.791C7.38523 16.4935 7.1013 16.0758 6.96875 15.6019L3.68 3.75H2C1.80109 3.75 1.61032 3.67098 1.46967 3.53033C1.32902 3.38968 1.25 3.19891 1.25 3C1.25 2.80109 1.32902 2.61032 1.46967 2.46967C1.61032 2.32902 1.80109 2.25 2 2.25H4.25C4.41397 2.24997 4.57343 2.30367 4.70398 2.40289C4.83452 2.50211 4.92895 2.64138 4.97281 2.79938L5.86156 6H22.25C22.3656 5.99998 22.4797 6.02669 22.5833 6.07805C22.6869 6.1294 22.7772 6.20401 22.8472 6.29605C22.9171 6.38809 22.9649 6.49506 22.9867 6.60861C23.0085 6.72216 23.0037 6.83922 22.9728 6.95062ZM21.2628 7.5H6.27875L8.41719 15.2006C8.46105 15.3586 8.55548 15.4979 8.68602 15.5971C8.81657 15.6963 8.97603 15.75 9.14 15.75H18.4062C18.5702 15.75 18.7297 15.6963 18.8602 15.5971C18.9908 15.4979 19.0852 15.3586 19.1291 15.2006L21.2628 7.5Z" fill="white"/>
</svg>
