<svg width="17" height="16" viewBox="0 0 17 16" fill="none" xmlns="http://www.w3.org/2000/svg">
<path d="M14.4856 9.38062C14.5013 9.4444 14.5043 9.51064 14.4944 9.57556C14.4844 9.64048 14.4618 9.70281 14.4278 9.75899C14.3938 9.81518 14.3491 9.86411 14.2961 9.90299C14.2432 9.94188 14.1832 9.96996 14.1194 9.98562L12.5794 10.3606L12.9831 11.8675C13.0001 11.9309 13.0045 11.9971 12.9959 12.0622C12.9873 12.1274 12.966 12.1902 12.9332 12.247C12.9003 12.3039 12.8566 12.3538 12.8044 12.3937C12.7523 12.4337 12.6928 12.463 12.6294 12.48C12.5873 12.4921 12.5438 12.4989 12.5 12.5C12.39 12.4999 12.2831 12.4635 12.1959 12.3965C12.1087 12.3295 12.046 12.2356 12.0175 12.1294L11.535 10.3294L9 8.86625V11.7931L10.3537 13.1462C10.4002 13.1927 10.4371 13.2479 10.4622 13.3086C10.4873 13.3692 10.5003 13.4343 10.5003 13.5C10.5003 13.5657 10.4873 13.6308 10.4622 13.6914C10.4371 13.7521 10.4002 13.8073 10.3537 13.8538C10.3073 13.9002 10.2521 13.9371 10.1914 13.9622C10.1308 13.9873 10.0657 14.0003 10 14.0003C9.9343 14.0003 9.86925 13.9873 9.80855 13.9622C9.74785 13.9371 9.6927 13.9002 9.64625 13.8538L8.5 12.7069L7.35375 13.8538C7.30729 13.9002 7.25214 13.9371 7.19145 13.9622C7.13075 13.9873 7.0657 14.0003 7 14.0003C6.9343 14.0003 6.86925 13.9873 6.80855 13.9622C6.74785 13.9371 6.6927 13.9002 6.64625 13.8538C6.59979 13.8073 6.56294 13.7521 6.5378 13.6914C6.51266 13.6308 6.49972 13.5657 6.49972 13.5C6.49972 13.4343 6.51266 13.3692 6.5378 13.3086C6.56294 13.2479 6.59979 13.1927 6.64625 13.1462L8 11.7931V8.86625L5.46562 10.3294L4.98312 12.1294C4.95464 12.2357 4.89184 12.3297 4.80449 12.3967C4.71713 12.4637 4.6101 12.5 4.5 12.5C4.45612 12.4999 4.41244 12.4943 4.37 12.4831C4.30654 12.4662 4.24705 12.4368 4.19493 12.3969C4.14281 12.3569 4.09907 12.3071 4.06622 12.2502C4.03337 12.1933 4.01204 12.1305 4.00347 12.0654C3.9949 12.0002 3.99924 11.9341 4.01625 11.8706L4.42 10.3638L2.88 9.98875C2.7512 9.95709 2.64026 9.87556 2.57157 9.7621C2.50289 9.64864 2.48209 9.51255 2.51375 9.38375C2.54541 9.25495 2.62694 9.14401 2.7404 9.07532C2.85386 9.00664 2.98995 8.98584 3.11875 9.0175L4.95937 9.46937L7.5 8L4.96 6.53375L3.11937 6.98562C3.08032 6.99529 3.04023 7.00012 3 7C2.87774 7.00008 2.75969 6.95537 2.66817 6.87432C2.57664 6.79327 2.51798 6.68149 2.50328 6.56012C2.48858 6.43875 2.51886 6.3162 2.58839 6.21564C2.65792 6.11508 2.76188 6.04348 2.88062 6.01437L4.42062 5.63937L4.01687 4.12937C3.98256 4.00124 4.00056 3.86473 4.0669 3.74986C4.13324 3.63499 4.24249 3.55119 4.37062 3.51687C4.49876 3.48256 4.63527 3.50056 4.75014 3.5669C4.865 3.63324 4.94881 3.74249 4.98312 3.87062L5.46562 5.67062L8 7.13375V4.20687L6.64625 2.85375C6.55243 2.75993 6.49972 2.63268 6.49972 2.5C6.49972 2.4343 6.51266 2.36925 6.5378 2.30855C6.56294 2.24785 6.59979 2.1927 6.64625 2.14625C6.6927 2.09979 6.74785 2.06294 6.80855 2.0378C6.86925 2.01266 6.9343 1.99972 7 1.99972C7.13268 1.99972 7.25993 2.05243 7.35375 2.14625L8.5 3.29312L9.64625 2.14625C9.74007 2.05243 9.86732 1.99972 10 1.99972C10.1327 1.99972 10.2599 2.05243 10.3537 2.14625C10.4476 2.24007 10.5003 2.36732 10.5003 2.5C10.5003 2.63268 10.4476 2.75993 10.3537 2.85375L9 4.20687V7.13375L11.5344 5.67062L12.0169 3.87062C12.0512 3.74249 12.135 3.63324 12.2499 3.5669C12.3647 3.50056 12.5012 3.48256 12.6294 3.51687C12.7575 3.55119 12.8668 3.63499 12.9331 3.74986C12.9994 3.86473 13.0174 4.00124 12.9831 4.12937L12.5794 5.63625L14.1194 6.01125C14.2414 6.03732 14.3493 6.10809 14.4219 6.20966C14.4944 6.31123 14.5263 6.43625 14.5113 6.56015C14.4964 6.68406 14.4356 6.79789 14.341 6.87928C14.2464 6.96067 14.1248 7.00373 14 7C13.9598 7.00012 13.9197 6.99529 13.8806 6.98562L12.04 6.53375L9.5 8L12.04 9.46625L13.8806 9.01437C13.9444 8.99869 14.0106 8.99572 14.0756 9.00563C14.1405 9.01555 14.2028 9.03816 14.259 9.07217C14.3152 9.10618 14.3641 9.15093 14.403 9.20385C14.4419 9.25678 14.47 9.31685 14.4856 9.38062Z" fill="#454545"/>
</svg>
