<svg width="19" height="18" viewBox="0 0 19 18" fill="none" xmlns="http://www.w3.org/2000/svg">
<path d="M17.8039 7.97265L14.2883 11.0062L15.3594 15.543C15.4185 15.7892 15.4033 16.0475 15.3156 16.2851C15.228 16.5228 15.072 16.7291 14.8671 16.8781C14.6623 17.0271 14.4179 17.112 14.1649 17.1221C13.9118 17.1323 13.6614 17.0672 13.4453 16.9352L9.5 14.507L5.55234 16.9352C5.33627 17.0665 5.08617 17.1309 4.83354 17.1204C4.58091 17.1099 4.33705 17.0248 4.13265 16.876C3.92826 16.7271 3.77248 16.5211 3.68492 16.2839C3.59737 16.0467 3.58195 15.7889 3.64062 15.543L4.71562 11.0062L1.2 7.97265C1.00882 7.80742 0.870563 7.58954 0.802483 7.3462C0.734403 7.10287 0.739521 6.84487 0.817196 6.60442C0.894872 6.36398 1.04166 6.15175 1.23924 5.99423C1.43681 5.83672 1.67642 5.7409 1.92812 5.71874L6.5375 5.34687L8.31562 1.04375C8.41187 0.809227 8.57568 0.608627 8.78622 0.467447C8.99677 0.326267 9.24454 0.250885 9.49804 0.250885C9.75154 0.250885 9.99932 0.326267 10.2099 0.467447C10.4204 0.608627 10.5842 0.809227 10.6805 1.04375L12.4578 5.34687L17.0672 5.71874C17.3194 5.74007 17.5597 5.83536 17.758 5.99266C17.9563 6.14995 18.1037 6.36227 18.1819 6.60301C18.2601 6.84374 18.2654 7.10219 18.1974 7.34597C18.1293 7.58975 17.9908 7.80802 17.7992 7.97343L17.8039 7.97265Z" fill="#0068FF"/>
</svg>
