<svg width="17" height="16" viewBox="0 0 17 16" fill="none" xmlns="http://www.w3.org/2000/svg">
<path d="M14.385 11.0781C14.4697 11.1797 14.5107 11.3108 14.499 11.4426C14.4873 11.5744 14.4238 11.6962 14.3225 11.7812C13.2375 12.6806 12.2687 13 11.385 13C10.2237 13 9.20875 12.4488 8.26437 11.9375C6.68 11.0775 5.31187 10.335 3.32249 11.9838C3.27205 12.0263 3.21369 12.0584 3.15077 12.0783C3.08784 12.0982 3.02161 12.1054 2.95588 12.0996C2.89015 12.0937 2.82623 12.075 2.7678 12.0443C2.70936 12.0136 2.65758 11.9717 2.61543 11.9209C2.57328 11.8702 2.54159 11.8115 2.5222 11.7485C2.50281 11.6854 2.4961 11.6191 2.50245 11.5534C2.5088 11.4877 2.52809 11.424 2.5592 11.3658C2.59032 11.3076 2.63265 11.2561 2.68374 11.2144C5.19437 9.13437 7.07874 10.1569 8.74187 11.0594C10.3262 11.9187 11.6944 12.6613 13.6837 11.0131C13.7856 10.9293 13.9164 10.889 14.0478 10.9012C14.1791 10.9134 14.3003 10.977 14.385 11.0781ZM13.6806 7.51562C11.6912 9.16437 10.3231 8.42187 8.73875 7.56187C7.07562 6.66 5.19124 5.6375 2.68062 7.7175C2.57977 7.80256 2.51663 7.92404 2.50495 8.05546C2.49327 8.18687 2.53401 8.31758 2.61829 8.41909C2.70256 8.5206 2.82355 8.58468 2.95487 8.59738C3.08619 8.61008 3.21721 8.57036 3.31937 8.48687C5.30875 6.83812 6.67687 7.58063 8.26125 8.44063C9.20562 8.9525 10.2206 9.50313 11.3819 9.50313C12.2656 9.50313 13.2344 9.18375 14.3194 8.28438C14.3705 8.24262 14.4128 8.19116 14.4439 8.13297C14.475 8.07478 14.4943 8.01101 14.5007 7.94532C14.507 7.87964 14.5003 7.81335 14.4809 7.75028C14.4615 7.6872 14.4298 7.62859 14.3877 7.57782C14.3455 7.52705 14.2938 7.48512 14.2353 7.45446C14.1769 7.4238 14.113 7.405 14.0472 7.39916C13.9815 7.39332 13.9153 7.40055 13.8523 7.42043C13.7894 7.44032 13.7311 7.47245 13.6806 7.515V7.51562ZM3.31937 4.9875C5.30875 3.33938 6.67687 4.08188 8.26125 4.94125C9.20562 5.45375 10.2206 6.00375 11.3819 6.00375C12.2656 6.00375 13.2344 5.68375 14.3194 4.785C14.3705 4.74325 14.4128 4.69179 14.4439 4.6336C14.475 4.57541 14.4943 4.51163 14.5007 4.44595C14.507 4.38027 14.5003 4.31398 14.4809 4.2509C14.4615 4.18783 14.4298 4.12921 14.3877 4.07844C14.3455 4.02767 14.2938 3.98575 14.2353 3.95508C14.1769 3.92442 14.113 3.90563 14.0472 3.89979C13.9815 3.89395 13.9153 3.90118 13.8523 3.92106C13.7894 3.94094 13.7311 3.97308 13.6806 4.01563C11.6912 5.66438 10.3231 4.92188 8.73875 4.06188C7.07562 3.16125 5.19124 2.13875 2.68062 4.21875C2.62774 4.2599 2.58367 4.31126 2.55103 4.36978C2.51839 4.4283 2.49785 4.49279 2.49062 4.5594C2.48339 4.62602 2.48963 4.69341 2.50895 4.75756C2.52828 4.82172 2.56031 4.88134 2.60313 4.93288C2.64595 4.98442 2.6987 5.02682 2.75823 5.05757C2.81776 5.08832 2.88287 5.1068 2.94968 5.11189C3.01649 5.11699 3.08365 5.1086 3.14716 5.08723C3.21066 5.06586 3.26923 5.03195 3.31937 4.9875Z" fill="#454545"/>
</svg>
